<svg xmlns="http://www.w3.org/2000/svg" width="2800" height="800" viewBox="0 0 2800 800">
  <defs>
    <clipPath id="clip-_2800x800_logo_no_background">
      <rect width="2800" height="800"/>
    </clipPath>
  </defs>
  <g id="_2800x800_logo_no_background" clip-path="url(#clip-_2800x800_logo_no_background)">
    <g id="Group_1" transform="translate(-438 -299.202)">
      <g id="Group_1-2" transform="translate(438 445.202)">
        <path id="Path_1" d="M766.591,783.42c21.067-21.22,41.193-41.558,61.407-61.8,4.825-4.833.56-7.426-2.285-10.28q-37.181-37.293-74.441-74.5c-14.3-14.3-28.649-28.544-42.853-42.936-22.939-23.239-27.225-48.67-10.806-76.5,8.861-15.025,20.7-28.292,31.841-43.212,3.975,3.61,6.279,5.53,8.392,7.644q96.523,96.508,193,193.061c24.913,24.956,24.87,60.484-.126,85.555q-63.946,64.143-128.084,128.095c-21.955,21.909-52.058,21.893-74.173-.1q-45.4-45.154-90.574-90.536c-8.9-8.9-8.907-8.9-18.1.279-9.934,9.926-19.973,19.75-29.743,29.832-3.53,3.642-6.085,3.693-9.7.04q-30.8-31.162-61.951-61.967c-3.8-3.757-3.122-6.281.327-9.706,24.916-24.728,49.36-49.947,74.637-74.3,21.5-20.716,51.537-19.683,73.2,1.8,30.711,30.454,61.187,61.144,91.778,91.719C760.685,777.937,763.15,780.161,766.591,783.42Z" transform="translate(-307.088 -396.456)" fill="#299fd2"/>
        <path id="Path_2" d="M697.684,904.432c-15.883,14.11-29.387,29.2-45.76,39.9-21.9,14.314-50.743,9.54-69.81-9.261q-63.881-63-126.858-126.912c-23.406-23.835-22.794-60.061.577-84.268,15.6-16.159,31.7-31.838,47.581-47.729C571.906,607.64,641.236,539.93,708.53,470.252c31.591-32.712,72.934-34.08,102.2,0,6.528,7.6,14.311,14.121,22.054,21.662L558.735,765.922C605.126,812.165,650.585,857.48,697.684,904.432Z" transform="translate(-438 -445.202)" fill="#145c8f"/>
      </g>
      <g id="Group_2" transform="translate(1206.498 552.404)">
        <path id="Path_3" d="M966.957,726.905v52.516H817.809a91.31,91.31,0,0,1-41.174-9.666,93.206,93.206,0,0,1-42.434-42.85,91.386,91.386,0,0,1-9.661-41.177V485.33h52.516V690.773a41.884,41.884,0,0,0,35.711,35.711Z" transform="translate(-724.54 -484.909)" fill="#145c8f"/>
        <path id="Path_4" d="M1116.678,632.216c0,81.087-65.961,147.048-147.046,147.048S822.587,713.3,822.587,632.216s65.961-147.043,147.046-147.043S1116.678,551.134,1116.678,632.216Zm-52.516,0a94.528,94.528,0,1,0-94.53,94.532A94.671,94.671,0,0,0,1064.162,632.216Z" transform="translate(-559.625 -485.173)" fill="#145c8f"/>
        <path id="Path_5" d="M1246.055,485.173V699.858c0,43.7-35.711,78.985-79.406,78.985h-135.28c-43.695,0-79.405-35.29-79.405-78.985V644.821h52.516v55.037a27.078,27.078,0,0,0,26.89,26.89h135.28a27.077,27.077,0,0,0,26.887-26.89V485.173Z" transform="translate(-342.014 -485.173)" fill="#145c8f"/>
        <path id="Path_6" d="M1085.1,779.264V485.173h52.516V779.264Z" transform="translate(-118.088 -485.173)" fill="#145c8f"/>
        <path id="Path_7" d="M1369.9,508.7a80.48,80.48,0,0,1,23.1,56.3,79.641,79.641,0,0,1-46.213,72.266,70.251,70.251,0,0,1-22.685,6.3h-2.524v.421H1180.84v135.28h-52.516V485.173H1313.6a78.726,78.726,0,0,1,55.874,23.105Zm-44.955,80.243a26.672,26.672,0,0,0,15.963-24.363,27.72,27.72,0,0,0-7.979-19.326,26.48,26.48,0,0,0-18.908-7.563H1180.84v54.2h133.18a24.539,24.539,0,0,0,10.923-2.518Z" transform="translate(-45.378 -485.173)" fill="#299fd2"/>
        <path id="Path_8" d="M1302.592,564.579v27.305h189.056V644.4H1302.592v55.458a27.078,27.078,0,0,0,26.887,26.89h214.686v52.516H1329.478c-43.695,0-78.984-35.711-78.984-79.406V564.579c0-43.695,35.29-79.406,78.984-79.406h214.686v52.516H1329.478A27.078,27.078,0,0,0,1302.592,564.579Z" transform="translate(160.111 -485.173)" fill="#299fd2"/>
        <path id="Path_9" d="M1621.106,727.064l26.885,52.513h-58.816l-26.887-52.513-28.15-55.042-1.258-2.518a52.061,52.061,0,0,0-44.534-25.208h-52.516V779.577h-52.516V485.486h185.7a78.883,78.883,0,0,1,78.979,78.982,79.639,79.639,0,0,1-46.211,72.266,70.233,70.233,0,0,1-22.687,6.3Zm-52.094-135.285a24.539,24.539,0,0,0,10.923-2.518,26.69,26.69,0,0,0,15.963-24.371,27.707,27.707,0,0,0-7.984-19.324,26.448,26.448,0,0,0-18.9-7.563H1435.829v54.2Z" transform="translate(383.511 -484.646)" fill="#299fd2"/>
      </g>
    </g>
  </g>
</svg>
